<svg width="21" height="21" viewBox="0 0 21 21" fill="none" xmlns="http://www.w3.org/2000/svg">
<g clip-path="url(#clip0_79_5021)">
<path d="M10.0774 1.42651V19.7645" stroke="#3C4F61" stroke-width="2.00051" stroke-linecap="round" stroke-linejoin="round"/>
<path d="M14.2452 4.76062H7.99358C7.21984 4.76062 6.47778 5.06799 5.93066 5.61511C5.38354 6.16223 5.07617 6.90428 5.07617 7.67803C5.07617 8.45178 5.38354 9.19383 5.93066 9.74095C6.47778 10.2881 7.21984 10.5954 7.99358 10.5954H12.1613C12.9351 10.5954 13.6771 10.9028 14.2242 11.4499C14.7714 11.9971 15.0787 12.7391 15.0787 13.5128C15.0787 14.2866 14.7714 15.0287 14.2242 15.5758C13.6771 16.1229 12.9351 16.4303 12.1613 16.4303H5.07617" stroke="#3C4F61" stroke-width="2.00051" stroke-linecap="round" stroke-linejoin="round"/>
</g>
<defs>
<clipPath id="clip0_79_5021">
<rect width="20.0051" height="20.0051" fill="white" transform="translate(0.0748901 0.592896)"/>
</clipPath>
</defs>
</svg>
