<svg width="25" height="25" viewBox="0 0 25 25" fill="none" xmlns="http://www.w3.org/2000/svg">
<path d="M22.3808 17.8898V20.8898C22.3819 21.1683 22.3249 21.444 22.2133 21.6992C22.1017 21.9543 21.9381 22.1834 21.7329 22.3717C21.5276 22.56 21.2854 22.7033 21.0215 22.7925C20.7577 22.8818 20.4782 22.9149 20.2008 22.8898C17.1236 22.5555 14.1678 21.504 11.5708 19.8198C9.15462 18.2845 7.10613 16.236 5.57079 13.8198C3.88077 11.211 2.82904 8.24082 2.50079 5.14982C2.4758 4.87329 2.50867 4.59458 2.59729 4.33145C2.68592 4.06831 2.82836 3.82651 3.01556 3.62144C3.20275 3.41638 3.4306 3.25253 3.68458 3.14035C3.93857 3.02816 4.21313 2.97008 4.49079 2.96982H7.49079C7.9761 2.96505 8.44658 3.1369 8.81455 3.45336C9.18252 3.76981 9.42287 4.20927 9.49079 4.68982C9.61742 5.64989 9.85224 6.59255 10.1908 7.49982C10.3253 7.85775 10.3545 8.24674 10.2747 8.6207C10.1949 8.99467 10.0097 9.33793 9.74079 9.60982L8.47079 10.8798C9.89435 13.3834 11.9672 15.4563 14.4708 16.8798L15.7408 15.6098C16.0127 15.341 16.3559 15.1557 16.7299 15.0759C17.1039 14.9962 17.4929 15.0253 17.8508 15.1598C18.7581 15.4984 19.7007 15.7332 20.6608 15.8598C21.1466 15.9284 21.5902 16.173 21.9073 16.5473C22.2245 16.9216 22.393 17.3994 22.3808 17.8898Z" stroke="black" stroke-width="2" stroke-linecap="round" stroke-linejoin="round"/>
</svg>
