<svg width="30" height="14" viewBox="0 0 30 14" fill="none" xmlns="http://www.w3.org/2000/svg">
<g id="arrow 2" clip-path="url(#clip0_55_291)">
<g id="Group">
<path id="Vector" d="M29.3539 6.19518L23.3791 0.324269C23.1641 0.112994 22.873 -0.00531791 22.5697 -0.00463574C22.2664 -0.00395357 21.9758 0.115659 21.7618 0.327899C21.5478 0.540138 21.428 0.827617 21.4287 1.12709C21.4294 1.42656 21.5505 1.71349 21.7655 1.92477L25.7767 5.86636H1.56068C1.26783 5.88105 0.991876 6.00626 0.789857 6.21612C0.587838 6.42598 0.475189 6.70445 0.475189 6.99398C0.475189 7.28351 0.587838 7.56198 0.789857 7.77184C0.991876 7.9817 1.26783 8.10692 1.56068 8.12161H25.7767L21.7655 12.0632C21.5505 12.2745 21.4294 12.5614 21.4287 12.8609C21.428 13.1604 21.5478 13.4478 21.7618 13.6601C21.9758 13.8723 22.2664 13.9919 22.5697 13.9926C22.873 13.9933 23.1641 13.875 23.3791 13.6637L29.3539 7.79277C29.5684 7.5809 29.6889 7.29358 29.6889 6.99398C29.6889 6.69439 29.5684 6.40706 29.3539 6.19518Z" fill="#1D293F"/>
</g>
</g>
<defs>
<clipPath id="clip0_55_291">
<rect width="29.2727" height="14" fill="white" transform="translate(0.417236 -0.00537109)"/>
</clipPath>
</defs>
</svg>
