<svg width="21" height="21" viewBox="0 0 21 21" fill="none" xmlns="http://www.w3.org/2000/svg">
<g clip-path="url(#clip0_79_5018)">
<path d="M18.3556 9.82849V10.5954C18.3546 12.3928 17.7725 14.1418 16.6963 15.5815C15.62 17.0211 14.1072 18.0743 12.3835 18.584C10.6598 19.0936 8.81753 19.0324 7.13144 18.4095C5.44535 17.7866 4.0058 16.6353 3.02747 15.1274C2.04914 13.6195 1.58446 11.8357 1.70273 10.0421C1.821 8.24856 2.51588 6.54126 3.68374 5.17487C4.8516 3.80848 6.42986 2.8562 8.18314 2.46007C9.93643 2.06394 11.7708 2.24518 13.4127 2.97675" stroke="#3C4F61" stroke-width="2.00051" stroke-linecap="round" stroke-linejoin="round"/>
<path d="M18.3556 3.92712L10.0201 12.2709L7.51949 9.77028" stroke="#3C4F61" stroke-width="2.00051" stroke-linecap="round" stroke-linejoin="round"/>
</g>
<defs>
<clipPath id="clip0_79_5018">
<rect width="20.0051" height="20.0051" fill="white" transform="translate(0.0175781 0.592896)"/>
</clipPath>
</defs>
</svg>
