<svg width="21" height="21" viewBox="0 0 21 21" fill="none" xmlns="http://www.w3.org/2000/svg">
<g clip-path="url(#clip0_79_5015)">
<path d="M18.3211 4.43557C17.8954 4.00963 17.3899 3.67175 16.8335 3.44122C16.2772 3.21069 15.6808 3.09204 15.0786 3.09204C14.4764 3.09204 13.8801 3.21069 13.3237 3.44122C12.7673 3.67175 12.2619 4.00963 11.8361 4.43557L10.9526 5.31913L10.069 4.43557C9.20904 3.57561 8.04268 3.09249 6.82651 3.09249C5.61034 3.09249 4.44398 3.57561 3.58402 4.43557C2.72406 5.29553 2.24094 6.46189 2.24094 7.67806C2.24094 8.89423 2.72406 10.0606 3.58402 10.9206L4.46758 11.8041L10.9526 18.2891L17.4376 11.8041L18.3211 10.9206C18.747 10.4948 19.0849 9.98933 19.3155 9.43297C19.546 8.87662 19.6646 8.28029 19.6646 7.67806C19.6646 7.07584 19.546 6.47951 19.3155 5.92315C19.0849 5.3668 18.747 4.86131 18.3211 4.43557Z" stroke="#3C4F61" stroke-width="2.00051" stroke-linecap="round" stroke-linejoin="round"/>
</g>
<defs>
<clipPath id="clip0_79_5015">
<rect width="20.0051" height="20.0051" fill="white" transform="translate(0.950012 0.592896)"/>
</clipPath>
</defs>
</svg>
