<svg width="24" height="24" viewBox="0 0 24 24" fill="none" xmlns="http://www.w3.org/2000/svg">
<path d="M23.0536 21.3578L17.7577 16.0619C19.0327 14.3646 19.721 12.2985 19.7187 10.1756C19.7187 4.75316 15.3071 0.341553 9.88462 0.341553C4.46213 0.341553 0.0505219 4.75316 0.0505219 10.1756C0.0505219 15.5981 4.46213 20.0097 9.88462 20.0097C12.0075 20.0121 14.0735 19.3238 15.7709 18.0488L21.0667 23.3446C21.3348 23.5843 21.6844 23.7122 22.0439 23.7021C22.4033 23.6921 22.7452 23.5448 22.9995 23.2905C23.2537 23.0363 23.401 22.6943 23.4111 22.3349C23.4211 21.9755 23.2932 21.6258 23.0536 21.3578V21.3578ZM2.86026 10.1756C2.86026 8.78636 3.27223 7.42827 4.04408 6.27313C4.81593 5.11798 5.91298 4.21765 7.19651 3.68599C8.48004 3.15433 9.89241 3.01523 11.255 3.28626C12.6176 3.5573 13.8692 4.22631 14.8516 5.20868C15.834 6.19105 16.503 7.44267 16.774 8.80526C17.045 10.1679 16.9059 11.5802 16.3743 12.8637C15.8426 14.1473 14.9423 15.2443 13.7871 16.0162C12.632 16.788 11.2739 17.2 9.88462 17.2C8.02233 17.1978 6.23695 16.457 4.92012 15.1401C3.60328 13.8233 2.8625 12.0379 2.86026 10.1756V10.1756Z" fill="#F8F9FA"/>
</svg>
