<svg width="86" height="84" viewBox="0 0 86 84" fill="none" xmlns="http://www.w3.org/2000/svg">
<g id="icon" clip-path="url(#clip0_79_1862)">
<g id="Group 244">
<g id="Ellipse 12">
<path id="Vector" d="M43.0642 83.2011C66.1554 83.2011 84.8746 64.7143 84.8746 41.9098C84.8746 19.1052 66.1554 0.618469 43.0642 0.618469C19.9729 0.618469 1.25378 19.1052 1.25378 41.9098C1.25378 64.7143 19.9729 83.2011 43.0642 83.2011Z" stroke="#F8F9FA" stroke-width="1.03499"/>
</g>
<g id="trust (1)">
<path id="Path 18" d="M66.0411 58.5101C66.0436 57.5888 65.8637 56.6761 65.5119 55.825C65.1602 54.9738 64.6435 54.201 63.9918 53.5514C63.7947 53.3562 63.5863 53.1728 63.3678 53.0021C65.1133 49.6559 66.0262 45.9362 66.0287 42.16C66.047 36.928 64.2979 31.8439 61.0663 27.7356C61.0489 27.7136 61.0302 27.6927 61.0102 27.673C61.031 27.5212 61.0212 27.3668 60.9815 27.2188L59.7534 22.623C59.7016 22.4292 59.5999 22.2524 59.4584 22.1106C59.3169 21.9687 59.1406 21.8667 58.9473 21.8149C58.754 21.763 58.5504 21.7631 58.3572 21.8151C58.1639 21.8671 57.9877 21.9692 57.8463 22.1112L56.5982 23.3625C52.5829 20.3563 47.7011 18.7414 42.6897 18.7616C38.9099 18.7616 35.1866 19.6809 31.839 21.4405C31.2427 20.6909 30.4993 20.072 29.6548 19.622C28.8103 19.172 27.8827 18.9005 26.9294 18.8244C25.976 18.7483 25.0172 18.8692 24.1124 19.1795C23.2075 19.4899 22.3758 19.9831 21.6687 20.6287C20.9616 21.2743 20.3942 22.0585 20.0016 22.9327C19.6089 23.807 19.3995 24.7528 19.3861 25.7115C19.3728 26.6702 19.5558 27.6214 19.9239 28.5064C20.292 29.3913 20.8374 30.1911 21.5262 30.8562C21.6851 31.008 21.8515 31.1511 22.0254 31.2854C20.27 34.6401 19.3522 38.3716 19.3508 42.16C19.3335 47.3897 21.0821 52.4714 24.3119 56.5782C24.3293 56.6002 24.3481 56.621 24.368 56.6407C24.3472 56.7925 24.357 56.947 24.3967 57.0949L25.6249 61.6908C25.6751 61.8854 25.7763 62.063 25.9181 62.2051C26.0598 62.3473 26.237 62.4488 26.4311 62.4991C26.5292 62.5256 26.6303 62.539 26.7319 62.5391C26.8808 62.5392 27.0281 62.5096 27.1655 62.452C27.3028 62.3944 27.4274 62.3101 27.5319 62.2038L28.78 60.9526C32.7951 63.9604 37.6775 65.5766 42.6897 65.5572C46.4794 65.5576 50.2124 64.6339 53.5667 62.8657C53.7266 63.068 53.8974 63.2614 54.0784 63.445C54.1497 63.5819 54.2649 63.6908 54.4054 63.7541C55.6917 64.9004 57.3547 65.5305 59.0757 65.5238C60.7967 65.5171 62.4548 64.8741 63.7322 63.7178C63.8195 63.6656 63.8941 63.5947 63.9506 63.5101L63.9931 63.4688C64.6445 62.8191 65.1609 62.0463 65.5125 61.1951C65.8641 60.344 66.0437 59.4314 66.0411 58.5101ZM58.5402 23.36L59.5637 27.1913L55.7421 26.1653L57.1387 24.7589L58.5402 23.36ZM20.7237 25.7749C20.7224 24.9147 20.9173 24.0657 21.2935 23.2926C21.6696 22.5196 22.2171 21.843 22.8941 21.3146C23.5711 20.7862 24.3596 20.42 25.1994 20.244C26.0392 20.0679 26.908 20.0867 27.7394 20.2989C28.5709 20.5111 29.3429 20.911 29.9965 21.4682C30.6502 22.0253 31.1681 22.7249 31.5106 23.5135C31.8532 24.3021 32.0114 25.1588 31.9732 26.0181C31.9349 26.8773 31.7012 27.7165 31.2898 28.4713C31.1636 28.0384 30.9074 27.6549 30.5562 27.3731C30.2049 27.0912 29.7756 26.9246 29.3266 26.896C29.4801 26.5147 29.5589 26.1073 29.5588 25.696V24.695C29.5588 23.8408 29.2203 23.0216 28.6178 22.4176C28.0154 21.8136 27.1983 21.4743 26.3462 21.4743C25.4942 21.4743 24.6771 21.8136 24.0746 22.4176C23.4722 23.0216 23.1337 23.8408 23.1337 24.695V25.696C23.1335 26.1073 23.2124 26.5147 23.3658 26.896C22.9165 26.9245 22.4868 27.0911 22.1353 27.3732C21.7837 27.6553 21.5275 28.0392 21.4014 28.4726C20.9528 27.6448 20.7197 26.7169 20.7237 25.7749ZM22.6807 30.0516V29.0832C22.6807 28.8655 22.7669 28.6567 22.9205 28.5028C23.074 28.3488 23.2822 28.2624 23.4994 28.2624H24.4067C24.9643 28.6871 25.6453 28.917 26.3456 28.917C27.0459 28.917 27.7269 28.6871 28.2845 28.2624H29.1918C29.409 28.2624 29.6172 28.3488 29.7708 28.5028C29.9243 28.6567 30.0106 28.8655 30.0106 29.0832V30.0516C28.9907 30.9299 27.6907 31.4128 26.3462 31.4128C25.0018 31.4128 23.7018 30.9299 22.6819 30.0516H22.6807ZM28.1909 25.6973C28.1909 25.9408 28.143 26.1819 28.0499 26.4068C27.9569 26.6318 27.8205 26.8361 27.6485 27.0081C27.4766 27.1801 27.2726 27.3164 27.048 27.4093C26.8235 27.5021 26.5829 27.5496 26.34 27.5491C25.8514 27.5472 25.3835 27.3512 25.0387 27.0041C24.6939 26.657 24.5003 26.1871 24.5003 25.6973V24.6963C24.5003 24.2056 24.6948 23.7351 25.0408 23.3882C25.3869 23.0412 25.8562 22.8463 26.3456 22.8463C26.835 22.8463 27.3044 23.0412 27.6504 23.3882C27.9965 23.7351 28.1909 24.2056 28.1909 24.6963V25.6973ZM26.8392 60.9576L25.8158 57.1262L29.6374 58.1523L26.8392 60.9576ZM42.6897 64.1858C38.042 64.2029 33.5111 62.7259 29.7622 59.9716L30.8855 58.8454C31.0271 58.7037 31.1289 58.527 31.1808 58.3333C31.2327 58.1395 31.2328 57.9355 31.1811 57.7417C31.1293 57.5479 31.0276 57.3712 30.8861 57.2293C30.7446 57.0874 30.5683 56.9854 30.375 56.9335L25.7921 55.7023C25.6441 55.6623 25.4896 55.6525 25.3378 55.6735C22.3286 51.8167 20.7019 47.0566 20.7199 42.16C20.719 38.6332 21.5618 35.1577 23.1774 32.0249C24.4583 32.6768 25.9083 32.9176 27.3304 32.7146C28.7526 32.5116 30.0779 31.8745 31.1263 30.89C31.1503 30.8699 31.1728 30.8481 31.1937 30.8249C31.2262 30.7936 31.2586 30.7636 31.2911 30.7323C32.3344 29.6864 33.0208 28.3362 33.2519 26.8753C33.4831 25.4143 33.2471 23.9175 32.5779 22.5992C35.7025 20.9786 39.1692 20.1329 42.6872 20.133C47.3354 20.1156 51.8668 21.5926 55.616 24.3472L54.4927 25.4733C54.3511 25.6151 54.2493 25.7917 54.1974 25.9855C54.1455 26.1792 54.1454 26.3833 54.1972 26.5771C54.2489 26.7709 54.3506 26.9476 54.4921 27.0895C54.6336 27.2313 54.8099 27.3333 55.0032 27.3852L59.5874 28.6165C59.6854 28.643 59.7866 28.6564 59.8882 28.6565C59.9395 28.6562 59.9908 28.6525 60.0417 28.6452C63.0508 32.5021 64.6774 37.2622 64.6595 42.1588C64.6599 45.6718 63.8233 49.1341 62.2196 52.2576C61.0904 51.6788 59.8252 51.4195 58.5601 51.5077C57.295 51.5959 56.0778 52.0282 55.0394 52.7581C54.8904 52.8625 54.7889 53.0219 54.7572 53.2013C54.7255 53.3807 54.7662 53.5654 54.8703 53.7147C54.9744 53.864 55.1334 53.9658 55.3123 53.9976C55.4913 54.0294 55.6755 53.9886 55.8244 53.8842C56.8665 53.1545 58.1243 52.7999 59.393 52.878C60.6617 52.9562 61.8667 53.4626 62.8118 54.3148C63.7569 55.167 64.3864 56.3148 64.598 57.5714C64.8095 58.828 64.5906 60.1194 63.9768 61.2353C63.8496 60.8038 63.5932 60.4218 63.2422 60.1412C62.8913 59.8605 62.4629 59.6947 62.0149 59.6663C62.1684 59.2849 62.2472 58.8775 62.247 58.4663V57.4653C62.247 56.6111 61.9085 55.7919 61.3061 55.1879C60.7036 54.5839 59.8865 54.2446 59.0345 54.2446C58.1825 54.2446 57.3653 54.5839 56.7629 55.1879C56.1604 55.7919 55.8219 56.6111 55.8219 57.4653V58.4663C55.8218 58.8775 55.9006 59.2849 56.0541 59.6663C55.6108 59.6943 55.1865 59.8567 54.8375 60.132C54.4884 60.4073 54.2311 60.7825 54.0996 61.2078C53.6639 60.4008 53.4307 59.4997 53.42 58.5821C53.4094 57.6646 53.6216 56.7582 54.0384 55.9413C54.0818 55.861 54.1087 55.7728 54.1176 55.6819C54.1265 55.591 54.1172 55.4992 54.0902 55.412C54.0633 55.3248 54.0192 55.2438 53.9606 55.1739C53.902 55.104 53.8301 55.0465 53.749 55.0048C53.668 54.9631 53.5794 54.9381 53.4886 54.9312C53.3978 54.9243 53.3065 54.9357 53.2201 54.9646C53.1337 54.9936 53.0539 55.0396 52.9855 55.0998C52.9171 55.1601 52.8613 55.2335 52.8216 55.3157C52.3159 56.306 52.0521 57.4026 52.0521 58.5151C52.0521 59.6277 52.3159 60.7243 52.8216 61.7146C49.6906 63.3404 46.2157 64.188 42.6897 64.1858ZM57.1873 58.4676V57.4666C57.1873 56.9759 57.3817 56.5054 57.7278 56.1584C58.0738 55.8115 58.5432 55.6166 59.0326 55.6166C59.522 55.6166 59.9914 55.8115 60.3374 56.1584C60.6835 56.5054 60.8779 56.9759 60.8779 57.4666V58.4676C60.8779 58.9582 60.6835 59.4288 60.3374 59.7757C59.9914 60.1226 59.522 60.3175 59.0326 60.3175C58.5432 60.3175 58.0738 60.1226 57.7278 59.7757C57.3817 59.4288 57.1873 58.9582 57.1873 58.4676ZM55.3676 62.7781V61.8535C55.3676 61.6358 55.4539 61.427 55.6074 61.2731C55.761 61.1191 55.9692 61.0326 56.1864 61.0326H57.0937C57.6512 61.4575 58.3323 61.6876 59.0326 61.6876C59.7329 61.6876 60.414 61.4575 60.9715 61.0326H61.8788C62.096 61.0326 62.3042 61.1191 62.4578 61.2731C62.6113 61.427 62.6976 61.6358 62.6976 61.8535V62.8019C61.6755 63.6783 60.3737 64.1579 59.0288 64.1536C57.6839 64.1492 56.3853 63.6611 55.3689 62.7781H55.3676Z" fill="#F8F9FA"/>
<path id="Path 19" d="M47.0829 43.9455C46.9547 44.0741 46.8826 44.2485 46.8826 44.4304C46.8826 44.6122 46.9547 44.7867 47.0829 44.9153C47.2112 45.0439 47.3852 45.1161 47.5666 45.1161C47.7479 45.1161 47.9219 45.0439 48.0502 44.9153L50.1719 42.7881C51.081 41.8765 51.5917 40.6402 51.5916 39.3511C51.5915 38.062 51.0806 36.8258 50.1713 35.9144C49.262 35.0029 48.0288 34.491 46.743 34.4911C45.4572 34.4912 44.2241 35.0034 43.315 35.915L42.691 36.5406L42.0669 35.915C41.1578 35.0036 39.9248 34.4915 38.6391 34.4915C37.3534 34.4915 36.1204 35.0036 35.2113 35.915C34.3022 36.8264 33.7914 38.0626 33.7914 39.3516C33.7914 40.6405 34.3022 41.8767 35.2113 42.7881L41.9059 49.4998C42.1152 49.7095 42.3989 49.8273 42.6947 49.8273C42.9906 49.8273 43.2743 49.7095 43.4835 49.4998L45.9534 47.0236C46.0817 46.895 46.1538 46.7206 46.1538 46.5387C46.1538 46.3569 46.0817 46.1825 45.9534 46.0539C45.8252 45.9253 45.6512 45.853 45.4698 45.853C45.2884 45.853 45.1144 45.9253 44.9862 46.0539L42.691 48.3512L36.1748 41.8184C35.5222 41.1642 35.1556 40.2768 35.1556 39.3516C35.1556 38.4263 35.5222 37.539 36.1748 36.8847C36.8274 36.2305 37.7125 35.8629 38.6354 35.8629C39.5583 35.8629 40.4434 36.2305 41.0959 36.8847L42.2067 37.9983C42.2702 38.062 42.3456 38.1125 42.4286 38.147C42.5116 38.1814 42.6005 38.1992 42.6903 38.1992C42.7802 38.1992 42.8691 38.1814 42.9521 38.147C43.0351 38.1125 43.1105 38.062 43.174 37.9983L44.2847 36.8847C44.6079 36.5608 44.9915 36.3038 45.4137 36.1285C45.8359 35.9531 46.2884 35.8629 46.7453 35.8629C47.2023 35.8629 47.6548 35.9531 48.077 36.1285C48.4992 36.3038 48.8828 36.5608 49.2059 36.8847C49.529 37.2087 49.7853 37.5933 49.9602 38.0165C50.1351 38.4398 50.2251 38.8934 50.2251 39.3516C50.2251 39.8097 50.1351 40.2634 49.9602 40.6866C49.7853 41.1099 49.529 41.4945 49.2059 41.8184L47.0829 43.9455Z" fill="#F8F9FA"/>
<path id="Path 20" d="M51.556 33.2511C49.3876 31.0804 46.5043 29.7766 43.446 29.5839C40.3877 29.3911 37.3643 30.3225 34.9417 32.2038C34.8 32.316 34.7083 32.4798 34.6866 32.6594C34.6649 32.8391 34.7149 33.0201 34.8257 33.163C34.9366 33.3058 35.0993 33.399 35.2784 33.422C35.4575 33.4451 35.6384 33.3962 35.7817 33.2861C38.036 31.5327 40.8721 30.7064 43.7128 30.9754C46.5534 31.2444 49.185 32.5885 51.072 34.7342C52.959 36.8798 53.9595 39.6657 53.8699 42.5248C53.7804 45.3839 52.6075 48.1014 50.5899 50.1241C48.5723 52.1468 45.8618 53.3227 43.0099 53.4125C40.1581 53.5023 37.3793 52.4992 35.2391 50.6074C33.0989 48.7156 31.7582 46.0773 31.4899 43.2294C31.2215 40.3816 32.0457 37.5382 33.7947 35.2781C33.9046 35.1345 33.9533 34.9531 33.9303 34.7736C33.9073 34.594 33.8144 34.4309 33.6719 34.3198C33.5294 34.2086 33.3489 34.1585 33.1696 34.1803C32.9904 34.202 32.827 34.294 32.7151 34.436C31.2308 36.3544 30.33 38.6615 30.121 41.0803C29.9119 43.4992 30.4033 45.9272 31.5364 48.073C32.6694 50.2188 34.3959 51.9913 36.5088 53.1778C38.6216 54.3644 41.0311 54.9146 43.4481 54.7625C45.8651 54.6104 48.187 53.7624 50.1352 52.3202C52.0835 50.878 53.5753 48.9029 54.4317 46.6319C55.2882 44.3609 55.4729 41.8903 54.9637 39.5167C54.4545 37.143 53.273 34.9671 51.561 33.2498L51.556 33.2511Z" fill="#F8F9FA"/>
</g>
</g>
</g>
<defs>
<clipPath id="clip0_79_1862">
<rect width="84.8689" height="83.8339" fill="white" transform="translate(0.629761 -0.00720215)"/>
</clipPath>
</defs>
</svg>
