<svg width="82" height="81" viewBox="0 0 82 81" fill="none" xmlns="http://www.w3.org/2000/svg">
<g id="icon" clip-path="url(#clip0_79_1849)">
<g id="Group 243">
<g id="Ellipse 11">
<path id="Vector" d="M41.1921 80.1981C63.157 80.1981 80.963 62.3921 80.963 40.4272C80.963 18.4624 63.157 0.656372 41.1921 0.656372C19.2273 0.656372 1.42126 18.4624 1.42126 40.4272C1.42126 62.3921 19.2273 80.1981 41.1921 80.1981Z" stroke="white" stroke-width="1.03499"/>
</g>
<path id="trust" d="M69.4472 40.064C69.0592 39.6595 68.5657 39.3716 68.0226 39.233C68.3449 38.72 68.5047 38.1216 68.4809 37.5163C68.4378 36.7285 68.0946 35.987 67.5219 35.4443C66.9491 34.9016 66.1903 34.5988 65.4013 34.5982H59.4084V25.6171C59.4084 24.6804 59.0362 23.782 58.3739 23.1197C57.7115 22.4573 56.8132 22.0852 55.8765 22.0852C54.9397 22.0852 54.0414 22.4573 53.379 23.1197C52.7167 23.782 52.3446 24.6804 52.3446 25.6171V27.9915C52.3449 28.5892 52.2204 29.1804 51.9789 29.7272C49.8283 29.6431 47.7936 28.7304 46.3008 27.1801C44.808 25.6297 43.9728 23.5619 43.9701 21.4097V20.3187C43.97 20.1525 43.937 19.9881 43.8732 19.8347C43.8093 19.6814 43.7158 19.5421 43.598 19.425C43.4802 19.3078 43.3404 19.2151 43.1867 19.1521C43.033 19.0891 42.8683 19.0571 42.7022 19.0579H29.6859C29.3514 19.0579 29.0306 19.1907 28.7939 19.4271C28.5573 19.6635 28.4242 19.9842 28.4239 20.3187V21.1758C28.4226 23.3837 27.5453 25.5008 25.9846 27.0625C24.4238 28.6241 22.3072 29.5026 20.0993 29.5051H19.8975C19.5634 29.5051 19.2429 29.6376 19.0064 29.8735C18.7698 30.1094 18.6364 30.4295 18.6355 30.7636V45.9002C18.6378 49.9012 20.0063 53.7815 22.5145 56.8988C25.0226 60.016 28.5201 62.1833 32.4279 63.0419C36.3356 63.9005 40.4195 63.399 44.0034 61.6203C47.5873 59.8415 50.4563 56.8923 52.1356 53.2608H62.6862C63.0302 53.2595 63.3705 53.1902 63.6876 53.0567C64.0046 52.9233 64.2921 52.7283 64.5334 52.4832C64.8861 52.129 65.1235 51.6764 65.2144 51.1849C65.3053 50.6934 65.2455 50.1858 65.0428 49.7289H65.3989C66.1879 49.7283 66.9468 49.4255 67.5195 48.8828C68.0922 48.3401 68.4354 47.5987 68.4785 46.8108C68.5027 46.2007 68.3404 45.5977 68.0131 45.0823C68.6427 44.9163 69.2031 44.5543 69.6133 44.0487C70.0235 43.5431 70.2622 42.9201 70.2949 42.2698C70.311 41.863 70.2442 41.4572 70.0987 41.077C69.9532 40.6968 69.732 40.3502 69.4484 40.0581L69.4472 40.064ZM36.194 61.9439C31.9401 61.9392 27.8618 60.2473 24.8538 57.2393C21.8458 54.2313 20.1539 50.153 20.1492 45.8991V31.0153C22.7485 30.998 25.2358 29.9544 27.0692 28.1117C28.9025 26.2689 29.9335 23.7764 29.9375 21.177V20.5715H42.4505V21.4121C42.4535 23.7876 43.3146 26.0821 44.8752 27.873C46.4358 29.664 48.5909 30.8309 50.9437 31.1589C50.7593 31.3269 50.5607 31.4786 50.3501 31.6124L46.2151 34.2432C45.851 34.4759 45.4279 34.5994 44.9959 34.5994H44.0651C43.9236 34.1328 43.636 33.7241 43.2447 33.4334C42.8533 33.1427 42.3789 32.9854 41.8914 32.9848H37.6531C37.1852 32.9856 36.7289 33.1308 36.3465 33.4004C35.9641 33.67 35.6742 34.0509 35.5162 34.4913H31.8038C31.2823 34.492 30.7823 34.6994 30.4135 35.0682C30.0447 35.437 29.8373 35.937 29.8366 36.4585V49.482C29.8373 50.0035 30.0447 50.5035 30.4135 50.8723C30.7823 51.2411 31.2823 51.4485 31.8038 51.4492H35.3867V58.8952C32.0865 58.6984 28.9856 57.25 26.7166 54.8453C24.4476 52.4407 23.1815 49.261 23.1765 45.9549V33.4098C25.701 33.2213 28.0686 32.1132 29.8307 30.2955C31.5928 28.4779 32.6268 26.077 32.7369 23.5478H35.3867V30.208C35.3867 30.4087 35.4665 30.6012 35.6084 30.7431C35.7504 30.8851 35.9429 30.9648 36.1436 30.9648C36.3443 30.9648 36.5368 30.8851 36.6787 30.7431C36.8207 30.6012 36.9004 30.4087 36.9004 30.208V22.7916C36.9004 22.6923 36.8809 22.5939 36.8428 22.5022C36.8048 22.4104 36.7491 22.3271 36.6789 22.2568C36.6087 22.1866 36.5253 22.1309 36.4336 22.0929C36.3418 22.0549 36.2435 22.0353 36.1442 22.0353H31.989C31.7884 22.0353 31.5961 22.115 31.4543 22.2568C31.3124 22.3987 31.2328 22.591 31.2328 22.7916V23.1109C31.2303 25.4474 30.301 27.6874 28.6489 29.3396C26.9967 30.9917 24.7567 31.9209 22.4203 31.9235C22.2197 31.9235 22.0273 32.0031 21.8855 32.1449C21.7437 32.2868 21.664 32.4791 21.664 32.6797V45.9501C21.6675 49.7904 23.1945 53.4723 25.91 56.1878C28.6255 58.9033 32.3075 60.4304 36.1477 60.4338C36.3483 60.4338 36.5407 60.3541 36.6825 60.2123C36.8243 60.0705 36.904 59.8781 36.904 59.6776V52.8857C37.0844 52.9364 37.2709 52.9624 37.4584 52.9628H41.8985C42.2511 52.9629 42.5989 52.8808 42.9142 52.7229C43.2295 52.565 43.5037 52.3358 43.7149 52.0534L44.5222 52.5105C45.3949 53.0046 46.3805 53.2647 47.3833 53.2656H50.4522C49.1016 55.8816 47.0567 58.0752 44.5419 59.606C42.0271 61.1368 39.1393 61.9457 36.1952 61.9439H36.194ZM35.3867 49.9355H31.8038C31.6836 49.9352 31.5685 49.8873 31.4835 49.8023C31.3985 49.7173 31.3506 49.6022 31.3503 49.482V36.4645C31.3506 36.3443 31.3985 36.2291 31.4835 36.1441C31.5685 36.0591 31.6836 36.0113 31.8038 36.0109H35.3867V49.9355ZM67.2189 43.679H61.3197C61.119 43.679 60.9265 43.7587 60.7846 43.9007C60.6426 44.0426 60.5629 44.2351 60.5629 44.4358C60.5629 44.6366 60.6426 44.8291 60.7846 44.971C60.9265 45.1129 61.119 45.1927 61.3197 45.1927H65.4571C65.6605 45.1927 65.8619 45.2337 66.0492 45.3133C66.2364 45.3929 66.4057 45.5095 66.5469 45.656C66.688 45.8025 66.7982 45.976 66.8709 46.166C66.9435 46.3561 66.9771 46.5588 66.9696 46.7621C66.9449 47.1597 66.7686 47.5326 66.477 47.8039C66.1854 48.0752 65.8007 48.2241 65.4025 48.22H62.7325H62.6826H62.6328H61.3268C61.1261 48.22 60.9336 48.2997 60.7917 48.4417C60.6498 48.5836 60.57 48.7761 60.57 48.9768C60.57 49.1776 60.6498 49.3701 60.7917 49.512C60.9336 49.6539 61.1261 49.7337 61.3268 49.7337H62.6328H62.6826H62.7325C62.9965 49.7348 63.2496 49.8389 63.4381 50.0238C63.6265 50.2087 63.7354 50.4599 63.7416 50.7238C63.743 50.8545 63.7182 50.9841 63.6687 51.105C63.6191 51.226 63.5458 51.3357 63.4531 51.4278C63.353 51.5298 63.2337 51.6109 63.102 51.6665C62.9704 51.7221 62.8291 51.7512 62.6862 51.7519H47.3797C46.6386 51.7514 45.9102 51.5592 45.2654 51.1939L44.166 50.5706V48.8563C44.166 48.6556 44.0863 48.4631 43.9443 48.3212C43.8024 48.1792 43.6099 48.0995 43.4092 48.0995C43.2085 48.0995 43.016 48.1792 42.874 48.3212C42.7321 48.4631 42.6523 48.6556 42.6523 48.8563V50.6894C42.652 50.8898 42.5723 51.082 42.4305 51.2238C42.2888 51.3655 42.0966 51.4453 41.8961 51.4456H37.456C37.3091 51.4453 37.1682 51.3868 37.0643 51.2829C36.9604 51.179 36.9019 51.0381 36.9016 50.8912V35.2535C36.901 35.1539 36.92 35.055 36.9577 34.9628C36.9953 34.8705 37.0508 34.7865 37.1209 34.7157C37.1911 34.6449 37.2745 34.5886 37.3664 34.5501C37.4584 34.5116 37.557 34.4917 37.6567 34.4913H41.8949C42.0954 34.4917 42.2876 34.5714 42.4293 34.7132C42.5711 34.8549 42.6509 35.0471 42.6512 35.2476V45.3221C42.6512 45.5228 42.7309 45.7153 42.8728 45.8572C43.0148 45.9992 43.2073 46.0789 43.408 46.0789C43.6087 46.0789 43.8012 45.9992 43.9432 45.8572C44.0851 45.7153 44.1648 45.5228 44.1648 45.3221V36.1119H44.9959C45.7157 36.1116 46.4205 35.9057 47.0271 35.5183L51.1645 32.8886C51.9897 32.3665 52.6689 31.6436 53.1388 30.7876C53.6086 29.9315 53.8537 28.9703 53.8511 27.9939V25.6195C53.8511 25.3544 53.9033 25.092 54.0047 24.8471C54.1062 24.6023 54.2548 24.3798 54.4422 24.1924C54.6296 24.005 54.8521 23.8563 55.097 23.7549C55.3419 23.6535 55.6043 23.6013 55.8693 23.6013C56.1344 23.6013 56.3968 23.6535 56.6417 23.7549C56.8865 23.8563 57.109 24.005 57.2964 24.1924C57.4838 24.3798 57.6325 24.6023 57.7339 24.8471C57.8354 25.092 57.8876 25.3544 57.8876 25.6195V34.8534C57.8882 35.1876 58.0212 35.508 58.2575 35.7443C58.4938 35.9806 58.8142 36.1136 59.1484 36.1142H65.3953C65.7936 36.1101 66.1783 36.2591 66.4699 36.5304C66.7615 36.8017 66.9378 37.1746 66.9624 37.5721C66.9699 37.7754 66.9364 37.9782 66.8637 38.1682C66.7911 38.3583 66.6809 38.5318 66.5397 38.6783C66.3985 38.8248 66.2293 38.9413 66.042 39.0209C65.8548 39.1005 65.6534 39.1415 65.45 39.1416H61.3197C61.119 39.1416 60.9265 39.2213 60.7846 39.3632C60.6426 39.5052 60.5629 39.6977 60.5629 39.8984C60.5629 40.0991 60.6426 40.2916 60.7846 40.4336C60.9265 40.5755 61.119 40.6552 61.3197 40.6552H67.2735C67.4769 40.6553 67.6783 40.6963 67.8656 40.7759C68.0528 40.8555 68.2221 40.972 68.3633 41.1185C68.5044 41.2651 68.6146 41.4385 68.6873 41.6286C68.7599 41.8186 68.7935 42.0214 68.786 42.2247C68.7613 42.6222 68.585 42.9951 68.2934 43.2664C68.0018 43.5377 67.6171 43.6867 67.2189 43.6826V43.679Z" fill="white"/>
</g>
</g>
<defs>
<clipPath id="clip0_79_1849">
<rect width="80.7289" height="80.7289" fill="white" transform="translate(0.827637 0.0627441)"/>
</clipPath>
</defs>
</svg>
