<svg width="46" height="46" viewBox="0 0 46 46" fill="none" xmlns="http://www.w3.org/2000/svg">
<path d="M32.8998 23.804C27.9201 23.804 23.88 27.8442 23.88 32.8239C23.88 34.5151 24.3497 36.1124 25.1953 37.4653C25.9897 38.8005 27.1176 39.9061 28.4684 40.6737C29.8191 41.4413 31.3462 41.8445 32.8998 41.8437C36.1883 41.8437 39.0633 40.0773 40.6042 37.4653C41.431 36.1124 41.9196 34.5151 41.9196 32.8239C41.9196 27.8442 37.8795 23.804 32.8998 23.804ZM37.3721 31.64L32.5615 36.0748C32.2985 36.3191 31.9414 36.4506 31.6032 36.4506C31.2461 36.4506 30.8891 36.3191 30.6072 36.0372L28.3899 33.8198C28.1278 33.5546 27.9808 33.1968 27.9808 32.8239C27.9808 32.451 28.1278 32.0932 28.3899 31.8279C28.9348 31.283 29.8368 31.283 30.3817 31.8279L31.6408 33.087L35.4554 29.5542C36.0191 29.028 36.9211 29.0656 37.4473 29.6294C37.9734 30.2119 37.9359 31.1139 37.3721 31.64Z" fill="#3C4F61"/>
<path d="M41.9196 16.9114C41.9196 19.1476 41.5626 21.2146 40.9425 23.1313C40.8297 23.526 40.3599 23.6387 40.0217 23.3944C37.9598 21.8726 35.4625 21.0556 32.8998 21.0643C26.3792 21.0643 21.0613 26.3822 21.0613 32.9028C21.0613 34.9323 21.5874 36.9242 22.5834 38.6905C22.884 39.2167 22.527 39.8932 21.9632 39.6865C17.4345 38.1456 8.28317 32.527 5.31414 23.1313C4.69403 21.2146 4.337 19.1476 4.337 16.9114C4.337 11.1049 9.01603 6.40707 14.785 6.40707C18.1862 6.40707 21.2304 8.06071 23.1283 10.5975C24.0977 9.29871 25.3565 8.24372 26.8048 7.51631C28.253 6.78891 29.851 6.40911 31.4716 6.40707C37.2406 6.40707 41.9196 11.1049 41.9196 16.9114Z" fill="#3C4F61"/>
</svg>
