<svg width="47" height="46" viewBox="0 0 47 46" fill="none" xmlns="http://www.w3.org/2000/svg">
<path d="M37.0306 38.6351C36.6674 38.6351 36.3042 38.5035 36.0175 38.2405C35.4441 37.6955 35.4441 36.8124 35.9984 36.2486C39.2553 33.0061 41.0761 28.6292 41.0638 24.0723C41.0638 14.4891 33.1312 6.69097 23.3827 6.69097C13.6343 6.69097 5.70171 14.4891 5.70171 24.0723C5.70171 28.6384 7.47937 32.9415 10.7289 36.2111C11.2832 36.7748 11.2641 37.6579 10.7097 38.2029C10.1363 38.7478 9.23791 38.729 8.68359 38.1841C4.92748 34.4158 2.82702 29.3481 2.83451 24.0723C2.83451 12.9295 12.0478 3.87238 23.3827 3.87238C34.7177 3.87238 43.9309 12.9295 43.9309 24.0723C43.9309 29.3901 41.8474 34.426 38.0436 38.2217C37.776 38.5035 37.3937 38.6351 37.0306 38.6351Z" fill="#3C4F61"/>
<path d="M23.3827 41.9196C25.3497 41.9196 27.2361 41.1515 28.627 39.7842C30.0178 38.4169 30.7992 36.5625 30.7992 34.6289C30.7992 32.6952 30.0178 30.8408 28.627 29.4735C27.2361 28.1062 25.3497 27.3381 23.3827 27.3381C21.4158 27.3381 19.5294 28.1062 18.1385 29.4735C16.7476 30.8408 15.9663 32.6952 15.9663 34.6289C15.9663 36.5625 16.7476 38.4169 18.1385 39.7842C19.5294 41.1515 21.4158 41.9196 23.3827 41.9196ZM31.0286 16.556C28.926 16.556 27.2057 18.2472 27.2057 20.3142V21.7235C27.2057 23.02 28.2761 24.0723 29.595 24.0723H31.0286C33.1312 24.0723 34.8515 22.3811 34.8515 20.3142C34.8515 18.2472 33.1312 16.556 31.0286 16.556Z" fill="#3C4F61"/>
</svg>
